<?xml version="1.0" encoding="UTF-8"?><svg id="Layer_2" xmlns="http://www.w3.org/2000/svg" viewBox="0 0 91.97 122.38"><defs><style>.cls-1{fill:#709b67;}.cls-2{fill:#77a4b7;}.cls-3{fill:#b2a359;}.cls-4{fill:#b7b7b7;}.cls-5{fill:#4b4c4b;}</style></defs><g id="Layer_1-2"><rect class="cls-4" x="10.16" y="80.04" width="3.95" height="2.61"/><rect class="cls-4" x="19.03" y="80.04" width="3.95" height="2.61"/><rect class="cls-4" x="27.9" y="80.04" width="3.95" height="2.61"/><rect class="cls-4" x="10.16" y="117.4" width="3.95" height="2.61"/><rect class="cls-4" x="19.03" y="117.4" width="3.95" height="2.61"/><rect class="cls-4" x="27.9" y="117.4" width="3.95" height="2.61"/><rect class="cls-4" x=".35" y="89.88" width="3.95" height="2.61" transform="translate(93.51 88.87) rotate(90)"/><rect class="cls-4" x=".35" y="98.75" width="3.95" height="2.61" transform="translate(102.38 97.74) rotate(90)"/><rect class="cls-4" x=".35" y="107.62" width="3.95" height="2.61" transform="translate(111.25 106.6) rotate(90)"/><rect class="cls-4" x="37.71" y="89.88" width="3.95" height="2.61" transform="translate(130.87 51.51) rotate(90)"/><rect class="cls-4" x="37.71" y="98.75" width="3.95" height="2.61" transform="translate(139.74 60.38) rotate(90)"/><rect class="cls-4" x="37.71" y="107.62" width="3.95" height="2.61" transform="translate(148.6 69.25) rotate(90)"/><path class="cls-2" d="M21,27.66c-3.45,0-6.71.85-9.58,2.33V0H0v69.66h11.42v-2.33c2.87,1.48,6.13,2.33,9.58,2.33,11.6,0,21-9.4,21-21s-9.4-21-21-21ZM21,58.79c-5.59,0-10.12-4.53-10.12-10.12s4.53-10.12,10.12-10.12,10.12,4.53,10.12,10.12-4.53,10.12-10.12,10.12Z"/><path class="cls-3" d="M70.97,80.38c-11.6,0-21,9.4-21,21s9.4,21,21,21,21-9.4,21-21-9.4-21-21-21ZM70.97,111.51c-5.59,0-10.12-4.53-10.12-10.12s4.53-10.12,10.12-10.12,10.12,4.53,10.12,10.12-4.53,10.12-10.12,10.12Z"/><path class="cls-1" d="M80.58,27.54v2.46c-2.88-1.49-6.14-2.34-9.61-2.34-11.6,0-21,9.4-21,21h0c0,11.6,9.4,21,21,21,3.47,0,6.73-.85,9.61-2.34v2.46h11.39v-21.12h0v-21.12h-11.39ZM70.97,58.08c-5.59,0-10.12-4.53-10.12-10.12s4.53-10.12,10.12-10.12,10.12,4.53,10.12,10.12-4.53,10.12-10.12,10.12Z"/><rect class="cls-5" x="3.63" y="82.65" width="34.75" height="34.75" rx="4.18" ry="4.18"/></g></svg>